<svg width="24" height="24" viewBox="0 0 24 24" fill="none" xmlns="http://www.w3.org/2000/svg">
<path fill-rule="evenodd" clip-rule="evenodd" d="M2.17786 11.0669C2.14918 11.3733 2.13451 11.6837 2.13451 11.9975C2.13451 15.9073 4.4102 19.286 7.70991 20.8817C7.57397 20.6526 7.44582 20.4162 7.32562 20.1745C6.26126 18.0338 5.63274 15.1492 5.63274 12.0197C5.63274 11.0321 5.69533 10.069 5.81444 9.14594C4.91799 9.11819 4.31678 9.29766 3.88503 9.52149C3.3157 9.81665 2.96524 10.2038 2.54287 10.6703C2.42841 10.7968 2.30867 10.929 2.17786 11.0669ZM3.19084 7.55259C4.00162 7.18889 4.97635 7.00502 6.18859 7.08695C6.47189 5.89685 6.8564 4.80858 7.32562 3.86489C7.45672 3.60122 7.59728 3.34387 7.74709 3.09548C5.77997 4.0366 4.17344 5.6101 3.19084 7.55259ZM10.9635 2.54884C10.365 2.94073 9.74527 3.66065 9.18423 4.78901C8.80755 5.54658 8.48617 6.43891 8.2404 7.43346C9.35643 7.7348 10.2377 8.23265 10.9635 8.82962L10.9635 2.54884ZM10.9635 11.8878C10.1573 10.7767 9.27613 9.91068 7.86374 9.48435C7.76277 10.291 7.70842 11.1402 7.70842 12.0197C7.70842 14.8985 8.29081 17.4535 9.18423 19.2503C9.74526 20.3787 10.365 21.0986 10.9635 21.4905L10.9635 11.8878ZM13.0391 21.5862L13.0391 14.9343C13.7321 15.8161 14.5869 16.6481 15.7573 17.2095C15.5383 17.9637 15.2743 18.6494 14.9755 19.2503C14.3652 20.4778 13.6854 21.2219 13.0391 21.5862ZM16.2195 15.1016C15.1048 14.415 14.3972 13.3231 13.5349 11.9923C13.4666 11.8868 13.3972 11.7798 13.3266 11.6714C13.233 11.5276 13.1374 11.3821 13.0391 11.2358L13.0392 2.45315C13.6854 2.81746 14.3652 3.56159 14.9755 4.78901C15.8689 6.58586 16.4513 9.14086 16.4513 12.0197C16.4513 13.1003 16.3692 14.1352 16.2195 15.1016ZM18.199 15.8513C18.4127 14.6444 18.527 13.3543 18.527 12.0197C18.527 8.89009 17.8985 6.00552 16.8341 3.86489C16.7222 3.63991 16.6035 3.41953 16.478 3.20539C19.6773 4.83653 21.8681 8.16141 21.8681 11.9975C21.8681 12.772 21.7788 13.5256 21.6099 14.2487C21.5821 14.2417 21.5821 14.2415 21.5822 14.2413L21.5825 14.2401L21.583 14.238L21.5838 14.2348L21.5845 14.2322C21.5845 14.2321 21.5836 14.2353 21.5818 14.2416C21.5782 14.2541 21.5708 14.2783 21.5591 14.3121C21.5354 14.3802 21.4951 14.484 21.4337 14.6071C21.3089 14.8571 21.1105 15.1599 20.8123 15.412C20.3998 15.7608 19.6318 16.152 18.199 15.8513ZM17.7264 17.8712C17.4793 18.706 17.1797 19.4794 16.8341 20.1745C16.7332 20.3774 16.6267 20.5766 16.5146 20.7709C17.818 20.0995 18.9524 19.1464 19.8373 17.9921C19.2156 18.0699 18.5138 18.0405 17.7264 17.8712ZM12.1835 23.9353C18.6948 23.8379 23.9438 18.5308 23.9438 11.9975C23.9438 5.40345 18.5966 0.0584297 12.0013 0.0584297C5.40596 0.0584297 0.0588379 5.40345 0.0588379 11.9975C0.0588379 18.5916 5.40596 23.9366 12.0013 23.9366C12.0177 23.9366 12.0342 23.9366 12.0506 23.9365C12.0604 23.9366 12.0701 23.9367 12.0799 23.9367C12.1145 23.9367 12.1491 23.9362 12.1835 23.9353Z" fill="#265CFF"/>
</svg>
